<svg xmlns="http://www.w3.org/2000/svg" height="800" width="1200" viewBox="-5.245545 -5.0289 45.46139 30.1734"><path d="M13.068 5.4026l6.2318-.779-.5274-2.5791-6.27-1.9103zm17.2471 13.3921l.1341-2.762-6.6428-1.3405.483 3.0752z" fill="#a7a9ac"/><path d="M0 7.0473v.0836l7.4687 12.9847 16.8208-2.348-.049-.4961-10.1767-1.2608-.9962-10.608z" fill="#9d9fa2"/><path d="M19.2997 4.6238l4.6158 9.9448.374 3.199-10.2232-1.7565-.9984-10.6084z" fill="#4d4d4f"/><path d="M34.5826 0L18.5961 1.1934l.1764.8513 12.1758 3.7035-.5013 10.4517 2.5037.3655L34.9703 0z" fill="#c7c8ca"/><path d="M18.7726 2.0445l2.5845 12.6478 9.0896 1.5074.5017-10.4517z" fill="#6d6e71"/><path d="M27.4119 6.6238V7.13h.0892v-.1997h.0674c.0466 0 .0787.006.0967.0159.031.019.0458.0575.0458.1164v.0402l.0032.0212.0018.006h.0822l-.0028-.0074-.0053-.0258-.001-.0377v-.036a.1314.1314 0 00-.0276-.0794c-.017-.026-.0455-.0434-.0843-.049.031-.0053.0564-.013.0727-.0244.031-.0215.0483-.054.0483-.1005 0-.0638-.0247-.1065-.0766-.1266-.0289-.0127-.0744-.0194-.1365-.0194h-.1732m.301.1534c0 .0399-.0167.066-.0512.079-.0187.0085-.0452.012-.0819.012h-.0787v-.1834h.0741c.0484 0 .0836.0063.1052.0194.0225.012.0324.037.0324.073m.334.0998c0-.1259-.0447-.2338-.1333-.3234-.0878-.0893-.1943-.1348-.3192-.1348-.1242 0-.2304.0455-.3186.1348-.0868.0896-.1312.1975-.1312.3234 0 .1292.0444.2371.1312.327.0872.0904.1937.1359.3186.1359.1249 0 .2314-.0455.3192-.1358.0886-.09.1334-.199.1334-.327m-.4537-.3955c.1087 0 .1986.0395.2762.1175a.385.385 0 01.1143.2797c0 .11-.0391.2046-.1143.2819-.0755.078-.1675.1171-.2762.1171-.1069 0-.2004-.0392-.2744-.1171-.0762-.0773-.114-.1718-.114-.2819 0-.1104.0388-.2032.114-.2797.0762-.078.1675-.1175.2744-.1175M12.7899 9.3617c-.6135-.6135-1.5177-1.0009-2.6159-1.0009-1.7275 0-2.8582 1.2753-2.8582 3.1161 0 1.8891 1.2273 3.1165 2.939 3.1165 1.0982 0 1.8891-.3228 2.6966-.9854v2.1153c-.8886.533-1.8083.7105-2.7774.7105-3.0032 0-4.9569-2.0345-4.9569-4.9569 0-2.9386 2.0341-4.9576 4.9569-4.9576.969 0 1.8404.194 2.6159.6463zm7.4488 5.1185v1.7925h-6.2163V6.6814h6.1197v1.792h-4.1014v2.0995h3.7623v1.7596h-3.7623v2.1477zm.9133-.7752c.7263.5493 1.5338.985 2.5995.985.8234 0 1.5501-.2907 1.5501-1.082 0-.7264-.5976-1.0012-1.5987-1.2915-1.9216-.533-2.7126-1.3402-2.7126-2.9549 0-1.8245 1.421-2.8423 3.1973-2.8423 1.082.0004 1.8725.2752 2.5513.7108v2.0183c-.7596-.6131-1.5343-.9846-2.4868-.9846-.8234 0-1.2756.4036-1.2756 1.0008 0 .6784.5486.9529 1.663 1.2598 1.9216.549 2.6642 1.4047 2.6642 3.0194 0 2.002-1.5822 2.8903-3.5522 2.89-1.0498 0-1.9865-.2904-2.5996-.6943z" fill="#fff"/></svg>